<mxfile host="app.diagrams.net" modified="2020-05-15T19:05:11.913Z" agent="5.0 (Windows)" etag="T9jPdo9hjOERkdPiuKC-" version="13.1.1" type="github">
  <diagram id="gF6n4Hiu2RdaUwdGAZ1h" name="Page-1">
    <mxGraphModel dx="990" dy="801" grid="1" gridSize="10" guides="1" tooltips="1" connect="1" arrows="1" fold="1" page="1" pageScale="1" pageWidth="850" pageHeight="1100" math="0" shadow="0">
      <root>
        <mxCell id="0" />
        <mxCell id="1" parent="0" />
        <mxCell id="6fTXQ9NmMwxGZ7EgbOdG-19" value="" style="group" parent="1" vertex="1" connectable="0">
          <mxGeometry x="330" y="71.5" width="270" height="130" as="geometry" />
        </mxCell>
        <mxCell id="Nd4aWLlPboQdub83Jy4l-23" value="" style="rounded=0;whiteSpace=wrap;html=1;strokeColor=#000000;" parent="6fTXQ9NmMwxGZ7EgbOdG-19" vertex="1">
          <mxGeometry width="270" height="130" as="geometry" />
        </mxCell>
        <mxCell id="Nd4aWLlPboQdub83Jy4l-6" value="Template" style="rounded=0;whiteSpace=wrap;html=1;strokeColor=#000000;" parent="6fTXQ9NmMwxGZ7EgbOdG-19" vertex="1">
          <mxGeometry x="10" y="80" width="250" height="40" as="geometry" />
        </mxCell>
        <mxCell id="Nd4aWLlPboQdub83Jy4l-8" value="Style" style="rounded=0;whiteSpace=wrap;html=1;strokeColor=#000000;" parent="6fTXQ9NmMwxGZ7EgbOdG-19" vertex="1">
          <mxGeometry x="10" y="20" width="40" height="60" as="geometry" />
        </mxCell>
        <mxCell id="Nd4aWLlPboQdub83Jy4l-14" value="" style="rounded=0;whiteSpace=wrap;html=1;strokeColor=#000000;" parent="6fTXQ9NmMwxGZ7EgbOdG-19" vertex="1">
          <mxGeometry x="50" y="20" width="210" height="60" as="geometry" />
        </mxCell>
        <mxCell id="Nd4aWLlPboQdub83Jy4l-18" value="events" style="ellipse;whiteSpace=wrap;html=1;strokeColor=#000000;" parent="6fTXQ9NmMwxGZ7EgbOdG-19" vertex="1">
          <mxGeometry x="190" y="45" width="60" height="30" as="geometry" />
        </mxCell>
        <mxCell id="Nd4aWLlPboQdub83Jy4l-22" value="Intern logik" style="text;html=1;strokeColor=none;fillColor=none;align=center;verticalAlign=middle;whiteSpace=wrap;rounded=0;" parent="6fTXQ9NmMwxGZ7EgbOdG-19" vertex="1">
          <mxGeometry x="50" y="20" width="220" height="20" as="geometry" />
        </mxCell>
        <mxCell id="Nd4aWLlPboQdub83Jy4l-24" value="&lt;b&gt;DOM Element&lt;br&gt;&lt;/b&gt;" style="text;html=1;strokeColor=none;fillColor=none;align=center;verticalAlign=middle;whiteSpace=wrap;rounded=0;" parent="6fTXQ9NmMwxGZ7EgbOdG-19" vertex="1">
          <mxGeometry width="270" height="20" as="geometry" />
        </mxCell>
        <mxCell id="Nd4aWLlPboQdub83Jy4l-25" value="metoder" style="ellipse;whiteSpace=wrap;html=1;strokeColor=#000000;" parent="6fTXQ9NmMwxGZ7EgbOdG-19" vertex="1">
          <mxGeometry x="125" y="45" width="60" height="30" as="geometry" />
        </mxCell>
        <mxCell id="Nd4aWLlPboQdub83Jy4l-26" value="properties" style="ellipse;whiteSpace=wrap;html=1;strokeColor=#000000;" parent="6fTXQ9NmMwxGZ7EgbOdG-19" vertex="1">
          <mxGeometry x="60" y="45" width="60" height="30" as="geometry" />
        </mxCell>
        <mxCell id="6fTXQ9NmMwxGZ7EgbOdG-20" value="" style="group" parent="1" vertex="1" connectable="0">
          <mxGeometry x="40" y="118" width="230" height="37" as="geometry" />
        </mxCell>
        <mxCell id="6fTXQ9NmMwxGZ7EgbOdG-18" value="" style="group" parent="6fTXQ9NmMwxGZ7EgbOdG-20" vertex="1" connectable="0">
          <mxGeometry width="230" height="37" as="geometry" />
        </mxCell>
        <mxCell id="6fTXQ9NmMwxGZ7EgbOdG-4" value="&lt;font style=&quot;font-size: 16px&quot; face=&quot;Lucida Console&quot;&gt;&amp;lt;input value=&quot;foo&quot; /&amp;gt;&lt;/font&gt;" style="text;html=1;strokeColor=none;fillColor=none;align=center;verticalAlign=middle;whiteSpace=wrap;rounded=0;" parent="6fTXQ9NmMwxGZ7EgbOdG-18" vertex="1">
          <mxGeometry x="20" y="2" width="210" height="20" as="geometry" />
        </mxCell>
        <mxCell id="6fTXQ9NmMwxGZ7EgbOdG-6" value="Tag" style="text;html=1;strokeColor=none;fillColor=none;align=center;verticalAlign=middle;whiteSpace=wrap;rounded=0;" parent="6fTXQ9NmMwxGZ7EgbOdG-18" vertex="1">
          <mxGeometry width="19" height="20" as="geometry" />
        </mxCell>
        <mxCell id="6fTXQ9NmMwxGZ7EgbOdG-7" value="" style="endArrow=none;html=1;entryX=0;entryY=1;entryDx=0;entryDy=0;exitX=0;exitY=0;exitDx=0;exitDy=0;dashed=1;dashPattern=1 1;" parent="6fTXQ9NmMwxGZ7EgbOdG-18" edge="1">
          <mxGeometry width="50" height="50" relative="1" as="geometry">
            <mxPoint x="22.000000000000682" y="2" as="sourcePoint" />
            <mxPoint x="22.000000000000057" y="22" as="targetPoint" />
            <Array as="points">
              <mxPoint x="22" y="22" />
            </Array>
          </mxGeometry>
        </mxCell>
        <mxCell id="6fTXQ9NmMwxGZ7EgbOdG-15" value="" style="endArrow=none;html=1;exitX=0.345;exitY=1.003;exitDx=0;exitDy=0;exitPerimeter=0;entryX=0.83;entryY=0.994;entryDx=0;entryDy=0;entryPerimeter=0;dashed=1;dashPattern=1 1;" parent="6fTXQ9NmMwxGZ7EgbOdG-18" source="6fTXQ9NmMwxGZ7EgbOdG-4" target="6fTXQ9NmMwxGZ7EgbOdG-4" edge="1">
          <mxGeometry width="50" height="50" relative="1" as="geometry">
            <mxPoint x="110" y="42" as="sourcePoint" />
            <mxPoint x="160" y="23" as="targetPoint" />
          </mxGeometry>
        </mxCell>
        <mxCell id="6fTXQ9NmMwxGZ7EgbOdG-17" value="attributter" style="text;html=1;align=center;verticalAlign=middle;resizable=0;points=[];autosize=1;" parent="6fTXQ9NmMwxGZ7EgbOdG-18" vertex="1">
          <mxGeometry x="109" y="17" width="70" height="20" as="geometry" />
        </mxCell>
        <mxCell id="6fTXQ9NmMwxGZ7EgbOdG-21" value="" style="endArrow=block;startArrow=block;html=1;entryX=1;entryY=0.5;entryDx=0;entryDy=0;startFill=1;endFill=1;exitX=0;exitY=0.45;exitDx=0;exitDy=0;exitPerimeter=0;shape=flexArrow;startWidth=8.943741272915634;endWidth=8.943741272915634;startSize=3.01744966442953;endSize=3.01744966442953;width=5.369127516778524;" parent="1" edge="1">
          <mxGeometry width="50" height="50" relative="1" as="geometry">
            <mxPoint x="328" y="130" as="sourcePoint" />
            <mxPoint x="268" y="130" as="targetPoint" />
          </mxGeometry>
        </mxCell>
      </root>
    </mxGraphModel>
  </diagram>
</mxfile>
